<svg width="36" height="23" viewBox="0 0 36 23" fill="none" xmlns="http://www.w3.org/2000/svg">
<path d="M17.3602 2.11328C14.5136 4.18351 12.659 7.52605 12.659 11.2999C12.659 15.1169 14.5567 18.481 17.4464 20.5296C20.3577 18.5025 22.2554 15.16 22.2554 11.343C22.2554 7.52605 20.3145 4.14038 17.3602 2.11328Z" fill="white"/>
<path d="M18.8911 21.3923C20.4006 22.1686 22.1258 22.5999 23.9588 22.5999C30.1911 22.5999 35.2588 17.5322 35.2588 11.3C35.2588 5.06773 30.1911 0 23.9588 0C22.1043 0 20.3575 0.452859 18.8048 1.25076C21.8455 3.55819 23.8079 7.22421 23.8079 11.3431C23.8079 15.4404 21.8886 19.0633 18.8911 21.3923Z" fill="white"/>
<path fill-rule="evenodd" clip-rule="evenodd" d="M11.1061 22.449C17.2305 22.449 22.1904 17.4675 22.1904 11.3431C22.1904 5.24027 17.2305 0.258789 11.1061 0.258789C4.9817 0.258789 0.000226974 5.24027 0.000226974 11.3431C0.000226974 17.4675 4.9817 22.449 11.1061 22.449ZM11.1061 1.81146C16.3679 1.81146 20.6378 6.0813 20.6378 11.3431C20.6378 16.6049 16.3679 20.8963 11.1061 20.8963C5.8443 20.8963 1.55288 16.6049 1.55288 11.3431C1.55288 6.0813 5.8443 1.81146 11.1061 1.81146Z" fill="white"/>
</svg>
