<svg width="18" height="18" viewBox="0 0 18 18" fill="none" xmlns="http://www.w3.org/2000/svg">
<path fill-rule="evenodd" clip-rule="evenodd" d="M17.1635 6.78782L11.8385 6.01375L9.45795 1.18611C9.39018 1.0708 9.26647 1 9.13278 1C8.99908 1 8.87537 1.0708 8.8076 1.18611L6.42601 6.01267L1.09954 6.78782C0.96291 6.80755 0.849318 6.90317 0.806518 7.03448C0.763719 7.1658 0.799133 7.31003 0.897873 7.40656L4.75208 11.1647L3.84239 16.471C3.81918 16.6071 3.8751 16.7445 3.98667 16.8257C4.09824 16.9068 4.24616 16.9176 4.36833 16.8535L9.13151 14.3484L13.8947 16.8524C14.0169 16.9165 14.1648 16.9057 14.2763 16.8246C14.3879 16.7434 14.4438 16.606 14.4206 16.47L13.5109 11.1647L17.3651 7.40656C17.4639 7.31008 17.4993 7.16591 17.4566 7.03462C17.4139 6.90333 17.3004 6.80766 17.1638 6.78782H17.1635Z" fill="url(#paint0_linear_277_135)" stroke="#F6AE37" stroke-width="0.5"/>
<defs>
<linearGradient id="paint0_linear_277_135" x1="1.20779" y1="10.9556" x2="16.2" y2="10.9556" gradientUnits="userSpaceOnUse">
<stop stop-color="#F5A623"/>
<stop offset="0.654067" stop-color="#F5A623"/>
<stop offset="0.654167" stop-color="#F5A623" stop-opacity="0"/>
</linearGradient>
</defs>
</svg>
