<svg width="35" height="35" viewBox="0 0 35 35" fill="none" xmlns="http://www.w3.org/2000/svg">
<rect width="35" height="35" rx="17.5" fill="#FF5D33"/>
<path d="M16.3828 24.1758C16.7031 24.1758 16.9626 23.9162 16.9626 23.596C16.9626 23.2758 16.7031 23.0162 16.3828 23.0162C16.0626 23.0162 15.803 23.2758 15.803 23.596C15.803 23.9162 16.0626 24.1758 16.3828 24.1758Z" stroke="white" stroke-width="1.5" stroke-linecap="round" stroke-linejoin="round"/>
<path d="M22.7606 24.1758C23.0808 24.1758 23.3404 23.9162 23.3404 23.596C23.3404 23.2758 23.0808 23.0162 22.7606 23.0162C22.4404 23.0162 22.1808 23.2758 22.1808 23.596C22.1808 23.9162 22.4404 24.1758 22.7606 24.1758Z" stroke="white" stroke-width="1.5" stroke-linecap="round" stroke-linejoin="round"/>
<path d="M11.7444 12H14.0636L15.6175 19.7635C15.6705 20.0304 15.8157 20.2702 16.0277 20.4409C16.2397 20.6115 16.505 20.7022 16.7771 20.697H22.4127C22.6848 20.7022 22.9501 20.6115 23.1621 20.4409C23.3741 20.2702 23.5193 20.0304 23.5723 19.7635L24.5 14.899H14.6434" stroke="white" stroke-width="1.5" stroke-linecap="round" stroke-linejoin="round"/>
<path d="M8.55556 14.2778V20.6555" stroke="white" stroke-width="1.5" stroke-linecap="round" stroke-linejoin="round"/>
<path d="M5.36667 17.4667H11.7444" stroke="white" stroke-width="1.5" stroke-linecap="round" stroke-linejoin="round"/>
</svg>
